<?xml version="1.0" encoding="UTF-8"?><svg id="a" xmlns="http://www.w3.org/2000/svg" viewBox="0 0 100 100"><defs><style>.b{fill:#fff;}.c{fill:#acbbd7;}.d{fill:#0a5beb;}</style></defs><path class="c" d="M80.51,90.29l-15.07-56.86c-.13-.47-.76-.71-1.42-.54l-13.41,3.55-13.41-3.55c-.66-.18-1.3,.07-1.42,.54l-15.07,56.86c-.2,.76,.99,1.49,1.88,1.14l9.37-3.57c.56-.21,1.32-.01,1.7,.45l6.37,7.75c.61,.74,2,.7,2.2-.06l8.38-31.61,8.38,31.61c.2,.76,1.6,.8,2.2,.06l6.37-7.75c.38-.46,1.14-.66,1.7-.45l9.37,3.57c.9,.34,2.09-.38,1.88-1.14Z"/><path class="d" d="M52.8,5.6l1.72,2.36c1.21,1.67,3.45,2.23,5.31,1.33l2.63-1.27c2.66-1.28,5.79,.46,6.1,3.39l.31,2.9c.22,2.05,1.87,3.65,3.93,3.81l2.91,.22c2.94,.22,4.78,3.29,3.59,5.99l-1.18,2.67c-.84,1.89-.21,4.1,1.5,5.26l2.41,1.64c2.44,1.66,2.5,5.24,.11,6.98l-2.36,1.72c-1.67,1.21-2.23,3.45-1.33,5.31l1.27,2.63c1.28,2.66-.46,5.79-3.39,6.1l-2.9,.31c-2.05,.22-3.65,1.87-3.81,3.93l-.22,2.91c-.22,2.94-3.29,4.78-5.99,3.59l-2.67-1.18c-1.89-.84-4.1-.21-5.26,1.5l-1.64,2.41c-1.66,2.44-5.24,2.5-6.98,.11l-1.72-2.36c-1.21-1.67-3.45-2.23-5.31-1.33l-2.63,1.27c-2.66,1.28-5.79-.46-6.1-3.39l-.31-2.9c-.22-2.05-1.87-3.65-3.93-3.81l-2.91-.22c-2.94-.22-4.78-3.29-3.59-5.99l1.18-2.67c.84-1.89,.21-4.1-1.5-5.26l-2.41-1.64c-2.44-1.66-2.5-5.24-.11-6.98l2.36-1.72c1.67-1.21,2.23-3.45,1.33-5.31l-1.27-2.63c-1.28-2.66,.46-5.79,3.39-6.1l2.9-.31c2.05-.22,3.65-1.87,3.81-3.93l.22-2.91c.22-2.94,3.29-4.78,5.99-3.59l2.67,1.18c1.89,.84,4.1,.21,5.26-1.5l1.64-2.41c1.66-2.44,5.24-2.5,6.98-.11Z"/><circle class="b" cx="49.82" cy="37.9" r="23.42"/><path class="c" d="M61.93,31.3c0-6.69-5.42-12.11-12.11-12.11s-12.11,5.42-12.11,12.11c0,5.24,3.32,9.7,7.98,11.39-2.26,1.39-3.77,3.89-3.77,6.74,0,3.03,1.71,5.66,4.21,6.99h0c.25,.13,.54,.2,.84,.2,1,0,1.81-.81,1.81-1.81,0-.69-.39-1.3-.96-1.6h0c-1.32-.71-2.21-2.11-2.21-3.71,0-2.33,1.89-4.21,4.21-4.21s4.21,1.89,4.21,4.21c0,1.59-.88,2.98-2.19,3.7h0c-.58,.3-.98,.91-.98,1.61,0,1,.81,1.81,1.81,1.81,.3,0,.57-.07,.82-.2h.03l.03-.03c2.48-1.33,4.17-3.95,4.17-6.96,0-2.85-1.51-5.35-3.77-6.74,4.65-1.69,7.98-6.15,7.98-11.39Zm-8.37,6.87l-.03,.02h-.03c-.25,.14-.52,.21-.82,.21-1,0-1.81-.81-1.81-1.81,0-.7,.4-1.31,.98-1.61h0c1.3-.72,2.19-2.11,2.19-3.7,0-2.33-1.89-4.21-4.21-4.21s-4.21,1.89-4.21,4.21c0,1.6,.89,2.99,2.21,3.71h0c.57,.3,.96,.91,.96,1.6,0,1-.81,1.81-1.81,1.81-.3,0-.59-.08-.84-.21h0c-2.5-1.32-4.21-3.95-4.21-6.98,0-4.36,3.54-7.9,7.9-7.9s7.9,3.54,7.9,7.9c0,3.01-1.69,5.63-4.17,6.96Z"/></svg>