<?xml version="1.0" encoding="UTF-8"?><svg id="a" xmlns="http://www.w3.org/2000/svg" viewBox="0 0 369 78.62"><defs><style>.c{fill:#fefefe;}.d{fill:#b6aa66;}.e{fill:#beae68;}.f{fill:#2a467a;}</style></defs><g id="b"><g><path class="c" d="M184.85,0c-3.03,0-5.79,2.55-5.77,5.34,.02,3.15,2.31,5.31,5.72,5.36,2.96,.04,5.97-2.56,5.98-5.25,.01-2.48-2.27-5.64-5.93-5.44Zm4.69,19.07c0-2.02-1.2-3.02-3.27-3.06-.75-.02-1.5-.01-2.25-.01-2.94,0-3.71,.8-3.7,3.79,0,4.78,0,9.55,0,14.33,0,4.02,.1,8.05-.02,12.07-.19,6.36,.7,5.95,6.28,5.91,1.97-.01,2.95-1.23,2.96-2.95,.07-10.03,.05-20.05,0-30.09Zm137.61-3.67c-.07-.01-.14-.02-.2-.02-2.83-.39-5.24,.52-7.4,2.27-1.39,1.13-2.24,2.67-3.12,4.58-.55-1.28-.3-2.16-.33-3.02-.09-2.21-1.06-3.18-3.31-3.21-.62,0-1.23,.02-1.84,.01-3.05-.02-3.96,.93-3.96,4.05,0,8.87,0,17.75,0,26.61,0,5.08,.37,5.38,5.41,5.48,2.51,.05,3.96-1.02,3.93-3.84-.06-5.11-.42-10.25,.36-15.33,.81-5.31,3.65-9.73,9.5-8.82,1.77,.27,2.57-.47,2.82-2.08,.58-3.91-.07-6.29-1.83-6.66Zm-119.5,19.94c4.1,.06,8.2,.02,12.3,.02s8.33,.02,12.5,0c2.29-.02,3.3-1.1,2.96-3.35-.85-5.65-2.81-10.54-7.99-13.88-8-5.18-23.31-3.7-28.5,7.66-3.24,7.09-2.66,13.8,2.05,19.77,5.77,7.29,13.82,8.3,22.42,6.72,2.68-.49,4.99-1.74,7.18-3.5,1.77-1.43,2.83-2.43,1.85-3.89-1.49-2.23-2.88-3.71-5.25-2.27-.8,.49-1.5,1.2-2.36,1.48-3.27,1.07-6.62,1.43-10.08,.96-4.08-.56-7.78-3.9-8.7-7.88-.37-1.61,.21-1.86,1.61-1.84Zm-.65-7.38c1.99-3.83,6.7-6.05,11.26-5.35,3.67,.56,6.52,2.12,7.99,5.75,.45,1.1,.14,1.32-.86,1.32-3-.02-6.01,0-9.01,0h0c-2.8-.01-5.6-.09-8.39,.02-1.73,.07-1.6-.55-.99-1.73Zm-42.82-11.97c-.2,.01-.41-.02-.61,.03-1.15,.23-2.03,.79-2.28,2.02-.16,.77-.25,1.56-.38,2.49-.34-.15-.51-.16-.58-.25-5.06-6.76-17.15-6.3-22.94-.84-7.94,7.5-8.41,20.58-.83,28.44,6.11,6.33,17.69,6.9,23.11,.58,.28-.33,.65-.86,1.15-.6,.44,.24,.34,.81,.34,1.31,0,2.02,1.1,2.92,3.06,2.91,.68,0,1.37,0,2.05,0,3.52-.02,4.08-.57,4.08-4.03V21.88c0-5.79-.34-6.11-6.18-5.87Zm-8.21,27.88c-5.03,2.94-13.14,1.59-14.99-6.12-.04-.2-.13-.38-.21-.57-.02-.06-.05-.13-.08-.19h0c-.07-.31-.12-.62-.15-.93-.01-.08-.02-.15-.02-.23,0-.05-.01-.1-.02-.15-.02-.2-.02-.39-.03-.58-.01-.45,0-.91,0-1.36,0-.37,.01-.73,0-1.1h0c.03-.32,.07-.63,.1-.95,.75-2.79,1.63-5.6,4.22-7.2,6.06-3.72,14.93-1.21,16.19,7.29,.75,5.03-.4,9.4-5.02,12.09Zm-32.78-20.67c-2.26-3.73-5.6-6.18-10.02-7.27-3.19-.78-6.27-.81-9.38-.02-2.89,.74-5.17,2.53-7.34,5.03-.27-1.53,.21-2.62-.68-3.58-1.1-1.19-4.88-2.03-6.83-1.25-1.8,.73-1.83,2.33-1.83,3.95,.02,14.13,.05,28.26,0,42.39-.02,5.18,.2,5.71,5.63,5.57,2.7-.07,3.64-.96,3.64-3.72,.01-5.05,0-10.1,.01-15.15,0-.45-.19-1.06,.31-1.29,.54-.24,.79,.36,1.12,.67,.6,.56,1.16,1.17,1.83,1.63,8.03,5.5,19.48,2.66,24.31-6.57,3.56-6.82,3.24-13.81-.75-20.4Zm-13.05,21.47c-3.71,1.08-7.42,.94-10.54-2.12-3.7-3.63-4.46-9.38-2.09-14.33,1.96-4.09,5.38-5.08,8.48-5.34,6.08,0,9.38,2.85,10.74,8.5,1.36,5.67-1.49,11.8-6.59,13.3Zm186.17,.09c-.72-1.18-1.45-1.58-2.8-.8-2.31,1.33-4.85,1.69-7.15,.16-1.37-.92-2.31-2.46-3.56-3.59-1.22-1.09-.76-1.93,.1-2.91,2.74-3.16,5.47-6.34,8.16-9.54,.33-.38,.75-.85,.43-1.48-.3-.6-.85-.57-1.41-.62-6.28-.52-6.67-.34-10.4,4.62-.66,.87-1.36,1.71-2.01,2.58-.3,.4-.6,.74-1.16,.63-.12-.15-.24-.3-.37-.44-1.69-2.68-4.12-4.72-6.12-7.13-.49-.59-1.24-1.34-.11-1.73,2.11-.73,3.48-2.32,5.1-3.67,2.56-2.14,3.85-4.86,4.24-8.05,.27-2.23-.71-4.24-1.91-6-1.43-2.1-3.74-3.33-5.96-4.35-3-1.38-6.29-1.06-9.46-.42-4.11,.83-7.38,3.15-9.02,6.94-2.17,4.99-.22,9.39,3.36,12.98,1.56,1.57,1.02,1.8-.54,2.59-4.5,2.25-8.5,5.07-10.31,10.14-1.73,4.87,.17,11.57,4.26,14.31,3.79,2.54,7.97,4,12.56,3.95,4.69-.04,9.15-1.01,12.96-3.97,2.35-1.83,2.34-1.84,4.48,.11,4.33,3.97,9.74,4.98,14.53,2.71,4.12-1.95,4.47-3.15,2.12-7Zm-35.56-32.27c.02-.14,.04-.27,.07-.4,.01-.07,.02-.13,.04-.18,.02-.07,.03-.14,.05-.2,.01-.04,.02-.08,.03-.11,.01-.05,.03-.11,.05-.16,.01-.05,.03-.11,.05-.16,.03-.1,.07-.2,.11-.29,.04-.11,.09-.21,.14-.31,.1-.22,.22-.42,.36-.61,.02-.03,.04-.07,.07-.1,0-.01,.02-.03,.03-.04,.06-.08,.13-.16,.19-.23s.13-.14,.19-.2c.05-.05,.11-.1,.17-.15,.06-.05,.12-.1,.19-.15,.09-.07,.17-.13,.27-.19,.07-.04,.13-.08,.2-.12,.17-.09,.34-.16,.53-.23,2.56-.87,5.11-.33,6.46,1.38,1.36,1.72,1.41,4.03,.17,6.11-1.27,2.14-3.42,3.29-5.36,4.6-.65,.44-1.63-.83-1.98-1.36-.73-1.13-1.4-2.31-1.77-3.61-.03-.09-.05-.19-.08-.28-.03-.1-.05-.19-.07-.28-.03-.13-.05-.26-.07-.38-.03-.15-.05-.29-.06-.43-.04-.34-.05-.7-.03-1.06,0-.15,.01-.29,.02-.43,.01-.14,.03-.28,.04-.42Zm10.11,29.89c-2.32,2.03-4.93,3.06-7.91,3.24-2.56-.08-4.94-.71-6.88-2.33-2.85-2.38-3.06-6.47-.56-9.56,1.49-1.83,3.46-3.05,5.57-4.06,.78-.38,1.26-.09,1.77,.48,2.71,3.03,5.44,6.05,8.16,9.08,.98,1.09,1.2,1.99-.14,3.16Z"/><path class="f" d="M367.74,51.31c-.72,.64-1.72,.78-3.78,.77-2.69,0-4.32-.94-4.33-3.63-.01-5.6,0-11.2,0-16.8,0-2.47-.43-4.79-2.13-6.78-1.76-2.05-3.96-2.29-6.32-1.69-4.2,1.05-6.96,4.51-7.1,8.62-.18,5.53-.13,11.06-.17,16.59-.02,2.83-.83,3.67-3.62,3.71-5.51,.08-5.65-.06-5.65-5.53,0-14.27,0-28.55,0-42.82,0-1.93,.71-2.63,2.67-2.67,7.21-.13,6.67,.2,6.6,6.55-.04,3.89-.02,7.79,.01,11.68,0,.56-.31,1.22,.31,1.7,4.3-6.59,12.94-6.73,17.41-4.38,3.08,1.62,5.05,4.11,6.13,7.27,.15,.45,.41,2.05,.41,3.17,.01,4.44,.05,16.14,.05,22.9,0,.28,0,.87-.52,1.33Z"/><path class="f" d="M296.3,44.8c-.72-1.18-1.45-1.58-2.8-.8-2.31,1.33-4.85,1.69-7.15,.16-1.37-.92-2.31-2.46-3.56-3.59-1.22-1.09-.76-1.93,.1-2.91,2.74-3.16,5.47-6.34,8.16-9.54,.33-.38,.75-.85,.43-1.48-.3-.6-.85-.57-1.41-.62-6.28-.52-6.67-.34-10.4,4.62-.66,.87-1.36,1.71-2.01,2.58-.3,.4-.6,.74-1.16,.63-.47,.14-.69,.07-.37-.44-1.69-2.68-4.12-4.72-6.12-7.13-.49-.59-1.24-1.34-.11-1.73,2.11-.73,3.48-2.32,5.1-3.67,2.56-2.14,3.85-4.86,4.24-8.05,.27-2.23-.71-4.24-1.91-6-1.43-2.1-3.74-3.33-5.96-4.35-3-1.38-6.29-1.06-9.46-.42-4.11,.83-7.38,3.15-9.02,6.94-2.17,4.99-.22,9.39,3.36,12.98,1.56,1.57,1.02,1.8-.54,2.59-4.5,2.25-8.5,5.07-10.31,10.14-1.73,4.87,.17,11.57,4.26,14.31,3.79,2.54,7.97,4,12.56,3.95,4.69-.04,9.15-1.01,12.96-3.97,2.35-1.83,2.34-1.84,4.48,.11,4.33,3.97,9.74,4.98,14.53,2.71,4.12-1.95,4.47-3.15,2.12-7Zm-35.56-32.27c.02-.14,.04-.27,.07-.4,.01-.07,.02-.13,.04-.18,.02-.07,.03-.14,.05-.2,.01-.04,.02-.08,.03-.11,.01-.05,.03-.11,.05-.16,.01-.05,.03-.11,.05-.16,.03-.1,.07-.2,.11-.29,.04-.1,.09-.21,.14-.31,.1-.22,.22-.42,.36-.61,.02-.03,.04-.07,.07-.1,0-.01,.02-.03,.03-.04,.06-.08,.13-.16,.19-.23s.13-.14,.19-.2c.05-.05,.11-.1,.17-.15,.06-.05,.12-.1,.19-.15,.09-.07,.17-.13,.27-.19,.07-.04,.13-.08,.2-.12,.17-.09,.34-.16,.53-.23,2.56-.87,5.11-.33,6.46,1.38,1.36,1.72,1.41,4.03,.17,6.11-1.27,2.14-3.42,3.29-5.36,4.6-.65,.44-1.63-.83-1.98-1.36-.73-1.13-1.4-2.31-1.77-3.61-.03-.09-.05-.19-.08-.28-.03-.1-.05-.19-.07-.28-.03-.13-.05-.26-.07-.38-.03-.15-.05-.29-.06-.43-.04-.34-.05-.7-.03-1.06,0-.15,.01-.29,.02-.43,.01-.14,.03-.28,.04-.42Zm10.11,29.89c-2.32,2.03-4.93,3.06-7.91,3.24-2.56-.08-4.94-.71-6.88-2.33-2.85-2.38-3.06-6.47-.56-9.56,1.49-1.83,3.46-3.05,5.57-4.06,.78-.38,1.26-.09,1.77,.48,2.71,3.03,5.44,6.05,8.16,9.08,.98,1.09,1.2,1.99-.14,3.16Z"/><path class="f" d="M123.18,23.23c-2.26-3.73-5.6-6.18-10.02-7.27-3.19-.78-6.27-.81-9.38-.02-2.89,.74-5.17,2.53-7.34,5.03-.27-1.53,.21-2.62-.68-3.58-1.1-1.19-4.88-2.03-6.83-1.25-1.8,.73-1.83,2.33-1.83,3.95,.02,14.13,.05,28.26,0,42.39-.02,5.18,.2,5.71,5.63,5.57,2.7-.07,3.64-.96,3.64-3.72,.01-5.05,0-10.1,.01-15.15,0-.45-.19-1.06,.31-1.29,.54-.24,.79,.36,1.12,.67,.6,.56,1.16,1.17,1.83,1.63,8.03,5.5,19.48,2.66,24.31-6.57,3.56-6.82,3.24-13.81-.75-20.4Zm-13.05,21.47c-3.71,1.08-7.42,.94-10.54-2.12-3.7-3.63-4.46-9.38-2.09-14.33,1.96-4.09,5.38-5.08,8.48-5.34,6.08,0,9.38,2.85,10.74,8.5,1.36,5.67-1.49,11.8-6.59,13.3Z"/><path class="f" d="M164.17,16.02c-.2,.01-.41-.02-.61,.03-1.15,.23-2.03,.79-2.28,2.02-.16,.77-.25,1.56-.38,2.49-.34-.15-.51-.16-.58-.25-5.06-6.76-17.15-6.3-22.94-.84-7.94,7.5-8.41,20.58-.83,28.44,6.11,6.33,17.69,6.9,23.11,.58,.28-.33,.65-.86,1.15-.6,.44,.24,.34,.81,.34,1.31,0,2.02,1.1,2.92,3.06,2.91,.68,0,1.37,0,2.05,0,3.52-.02,4.08-.57,4.08-4.03V21.88c0-5.79-.34-6.11-6.18-5.87Zm-8.21,27.88c-5.03,2.94-13.14,1.59-14.99-6.12-.04-.2-.13-.38-.21-.57-.02-.05-.05-.1-.07-.16l-.14-.02s.09-.01,.13-.02c0,0,0,.01,0,.02v-.02c-.07-.31-.12-.62-.15-.92-.01-.08-.02-.15-.02-.23,0-.05-.01-.1-.02-.15-.02-.2-.02-.39-.03-.58-.01-.45,0-.91,0-1.36,0-.37,.01-.73,0-1.1h0c-.19-.34-.24-.66,.1-.95,.75-2.79,1.63-5.6,4.22-7.2,6.06-3.72,14.93-1.21,16.19,7.29,.75,5.03-.4,9.4-5.02,12.09Z"/><path class="f" d="M207.64,35.36c4.1,.06,8.2,.02,12.3,.02s8.33,.02,12.5,0c2.29-.02,3.3-1.1,2.96-3.35-.85-5.65-2.81-10.54-7.99-13.88-8-5.18-23.31-3.7-28.5,7.66-3.24,7.09-2.66,13.8,2.05,19.77,5.77,7.29,13.82,8.3,22.42,6.72,2.68-.49,4.99-1.74,7.18-3.5,1.77-1.43,2.83-2.43,1.85-3.89-1.49-2.23-2.88-3.71-5.25-2.27-.8,.49-1.5,1.2-2.36,1.48-3.27,1.07-6.62,1.43-10.08,.96-4.08-.56-7.78-3.9-8.7-7.88-.37-1.61,.21-1.86,1.61-1.84Zm-.65-7.38c1.99-3.83,6.7-6.05,11.26-5.35,3.67,.56,6.52,2.12,7.99,5.75,.45,1.1,.14,1.32-.86,1.32-3-.02-6.01,0-9.01,0h0c-2.8-.01-5.6-.09-8.39,.02-1.73,.07-1.6-.55-.99-1.73Z"/><path class="f" d="M316.42,22.24c.88-1.9,1.73-3.44,3.12-4.57,2.16-1.75,4.58-2.67,7.4-2.28,.07,0,.14,.01,.2,.03,1.76,.38,2.42,2.76,1.83,6.66-.24,1.61-1.04,2.35-2.81,2.08-5.85-.9-8.69,3.51-9.5,8.83-.78,5.09-.42,10.22-.36,15.33,.03,2.82-1.41,3.89-3.92,3.85-5.04-.1-5.42-.4-5.41-5.48,.01-8.87,0-17.74,0-26.61,0-3.12,.92-4.06,3.96-4.05,.61,0,1.23-.02,1.84,0,2.26,.03,3.23,.99,3.31,3.21,.03,.86-.21,1.74,.34,3.02Z"/><path class="f" d="M180.31,34.13c0-4.78,0-9.55,0-14.33,0-2.99,.76-3.78,3.71-3.79,.75,0,1.5,0,2.25,0,2.07,.04,3.26,1.04,3.27,3.06,.05,10.03,.06,20.06,0,30.08-.01,1.72-.99,2.93-2.96,2.95-5.58,.04-6.47,.45-6.28-5.91,.12-4.02,.02-8.05,.02-12.07Z"/><path class="f" d="M184.85,.01c3.66-.2,5.94,2.96,5.93,5.44-.01,2.69-3.02,5.29-5.98,5.25-3.41-.05-5.7-2.2-5.72-5.36-.01-2.79,2.74-5.33,5.78-5.33Z"/><path class="c" d="M260.83,15.25c-.13-.6-.2-1.22-.17-1.88,.01-.3,.03-.58,.07-.85-.04,.27-.06,.56-.07,.85-.03,.65,.03,1.27,.16,1.88Z"/><path class="c" d="M276.5,33.85c-.47,.14-.69,.07-.36-.45,.12,.15,.24,.3,.36,.45Z"/><path class="e" d="M140.57,31.71c-.03,.32-.07,.62-.1,.94-.19-.34-.24-.66,.1-.94Z"/><path class="e" d="M140.69,37.04l-.14-.02s.09-.01,.13-.02h0v.03Z"/></g><path class="d" d="M345.92,71.4l-.43,.17c-.33-.41-.68-.82-.99-1.24-2.02-2.74-4.02-5.49-6.04-8.23-.52-.71-1.22-1.13-2.13-.89-1.05,.28-.96,1.19-.96,2.01,0,4.37,0,8.74-.01,13.11,0,1.15,.36,1.8,1.64,1.79,1.27,0,1.66-.62,1.64-1.79-.04-2.05-.04-4.1-.02-6.14,0-.58-.3-1.44,.36-1.67,.78-.27,1.05,.65,1.43,1.16,1.88,2.5,3.74,5.03,5.65,7.52,.51,.67,1.21,1.18,2.13,.82,.81-.32,1.01-1.02,1.01-1.84-.01-4.3,0-8.6-.02-12.9,0-1.19-.41-1.91-1.8-1.91-1.44,0-1.46,.86-1.46,1.89,.02,2.71,0,5.43,0,8.14Z"/><path class="d" d="M318.84,61.07c-4.76,.03-8.85,4.08-8.76,8.69,.1,4.77,4.02,8.48,8.94,8.45,4.73,.33,8.76-3.86,8.82-8.53,.07-4.82-3.97-8.64-9.01-8.61Zm.22,14.3c-3.2-.01-5.54-2.48-5.51-5.81,.03-3.22,2.42-5.67,5.47-5.65,3.08,.03,5.58,2.71,5.53,5.92-.04,2.91-2.65,5.55-5.49,5.54Z"/><path class="d" d="M224.46,61.07c-4.88,0-8.75,3.81-8.73,8.62,.02,4.79,3.88,8.52,8.81,8.51,4.94,0,8.64-3.58,8.68-8.38,.03-5.06-3.66-8.75-8.76-8.75Zm.14,14.31c-3.11,0-5.56-2.54-5.62-5.82-.06-2.93,2.68-5.7,5.59-5.65,3.08,.05,5.36,2.47,5.41,5.73,.05,3.15-2.38,5.75-5.37,5.75Z"/><path class="d" d="M271.69,67.72c0-1.43-.02-2.86,0-4.3,.02-1.2-.11-2.22-1.67-2.23-1.56-.01-1.73,1.09-1.75,2.23-.04,2.59,0,5.18-.02,7.78-.02,2.87-1.18,4.2-3.6,4.15-2.01-.04-3.19-1.55-3.2-4.14-.01-2.8,.01-5.59,0-8.39,0-1.23-.76-1.64-1.88-1.62-1,.01-1.55,.47-1.55,1.48,0,3.2-.1,6.4,.05,9.59,.14,3.06,2.62,6.34,7.57,5.95,3.6-.28,6-2.75,6.06-6.61,.02-1.3,0-2.59,0-3.89Z"/><path class="d" d="M202.65,77.68c3.89,.05,4.06,.02,5.05-.87,2.97-2.64,1.77-6.67-2.44-8.24-1.14-.43-2.31-.81-3.42-1.32-.7-.33-1.16-.93-1.01-1.82,.15-.88,.79-1.26,1.53-1.46,1.42-.38,2.52,.18,3.42,1.27,.75,.91,1.59,.62,2.35,.05,.87-.66,.27-1.36-.1-1.97-.72-1.18-1.92-1.7-3.19-2.06-2.86-.81-6.16,.61-7.07,3.01-.96,2.51,.31,4.72,3.57,6.14,1.06,.46,2.19,.77,3.24,1.24,.86,.38,1.42,1.04,1.3,2.09-.13,1.09-.93,1.46-1.83,1.64-1.68,.35-3.06-.16-4.18-1.51-.75-.91-1.81-.78-2.57-.17-.98,.79-.16,1.55,.36,2.27,1.37,1.88,3.33,1.89,4.97,1.72Z"/><path class="d" d="M283.73,70.81h0c0,1.63,.03,3.27,0,4.9-.03,1.28,.13,2.37,1.76,2.4,1.71,.03,1.51-1.21,1.51-2.29,0-3.2,.07-6.4-.05-9.6-.06-1.62,.48-2.28,2.08-2.07,.4,.05,.82,0,1.23,0,1.06,.02,2-.24,1.97-1.51-.03-1.24-.98-1.48-2.03-1.47-2.79,.02-5.59-.04-8.38,.04-1.22,.04-3.13-.72-3.14,1.46,0,2.2,1.94,1.45,3.13,1.43,1.54-.03,2.08,.48,1.97,2.01-.11,1.56-.02,3.13-.02,4.7Z"/><path class="d" d="M240.99,69.7c0,2.18,0,4.37,0,6.55,0,.95,.11,1.84,1.36,1.85,2.59,.01,5.19,0,7.78,0,1.14,0,1.24-.79,1.35-1.66,.15-1.13-.59-1.26-1.37-1.29-1.3-.05-2.6-.09-3.89-.01-1.46,.09-2.07-.35-2.01-1.95,.12-3.34,.02-6.69,.04-10.03,0-1.17-.45-1.74-1.69-1.78-1.34-.05-1.6,.64-1.58,1.77,.04,2.18,.01,4.37,.01,6.55Z"/><path class="d" d="M299.3,69.62h0c0,2.25,.02,4.51,0,6.76-.02,1.18,.43,1.77,1.68,1.75,1.16-.02,1.56-.59,1.56-1.66-.01-4.51-.03-9.01,0-13.52,.01-1.24-.58-1.73-1.72-1.77-1.34-.04-1.55,.8-1.53,1.89,.03,2.18,0,4.37,0,6.56Z"/><path class="d" d="M345.92,71.4c0-2.71,.01-5.43,0-8.14,0-1.03,.01-1.89,1.46-1.89,1.39,0,1.8,.72,1.8,1.91,.01,4.3,0,8.6,.02,12.9,0,.82-.2,1.52-1.01,1.84-.92,.36-1.62-.15-2.13-.82-1.91-2.49-3.76-5.01-5.65-7.52-.39-.51-.65-1.43-1.43-1.16-.66,.22-.35,1.09-.36,1.67-.02,2.05-.02,4.1,.02,6.14,.02,1.17-.37,1.78-1.64,1.79-1.28,0-1.65-.65-1.64-1.79,.02-4.37,0-8.74,.01-13.11,0-.82-.09-1.73,.96-2.01,.9-.24,1.6,.18,2.13,.89,2.02,2.74,4.03,5.49,6.04,8.23,.31,.43,.66,.83,.99,1.24l.43-.17Z"/><path class="d" d="M318.84,61.07c-4.76,.03-8.85,4.08-8.76,8.69,.1,4.77,4.02,8.48,8.94,8.45,4.73,.33,8.76-3.86,8.82-8.53,.07-4.82-3.97-8.64-9.01-8.61Zm.22,14.3c-3.2-.01-5.54-2.48-5.51-5.81,.03-3.22,2.42-5.67,5.47-5.65,3.08,.03,5.58,2.71,5.53,5.92-.04,2.91-2.65,5.55-5.49,5.54Z"/><path class="d" d="M224.46,61.07c-4.88,0-8.75,3.81-8.73,8.62,.02,4.79,3.88,8.52,8.81,8.51,4.94,0,8.64-3.58,8.68-8.38,.03-5.06-3.66-8.75-8.76-8.75Zm.14,14.31c-3.11,0-5.56-2.54-5.62-5.82-.06-2.93,2.68-5.7,5.59-5.65,3.08,.05,5.36,2.47,5.41,5.73,.05,3.15-2.38,5.75-5.37,5.75Z"/><path class="d" d="M271.69,67.72c0,1.3,.01,2.59,0,3.89-.06,3.86-2.45,6.33-6.06,6.61-4.95,.39-7.43-2.9-7.57-5.95-.15-3.19-.05-6.39-.05-9.59,0-1.01,.56-1.47,1.55-1.48,1.12-.01,1.88,.39,1.88,1.62,.02,2.8,0,5.59,0,8.39,.01,2.59,1.19,4.11,3.2,4.14,2.42,.04,3.58-1.28,3.6-4.15,.02-2.59-.02-5.18,.02-7.78,.02-1.13,.19-2.24,1.75-2.23,1.56,.01,1.69,1.04,1.67,2.23-.02,1.43,0,2.86,0,4.3Z"/><path class="d" d="M202.55,78.59c-2.15,.02-3.49-.75-4.87-2.63-.53-.72-1.34-1.48-.36-2.27,.76-.61,1.82-.74,2.57,.17,1.11,1.35,2.49,1.86,4.18,1.51,.9-.19,1.7-.56,1.83-1.64,.13-1.05-.43-1.71-1.3-2.09-1.06-.47-2.18-.78-3.24-1.24-3.26-1.42-4.53-3.63-3.57-6.14,.91-2.4,4.21-3.82,7.07-3.01,1.27,.36,2.46,.88,3.19,2.06,.37,.61,.97,1.32,.1,1.97-.76,.57-1.59,.87-2.35-.05-.9-1.09-2.01-1.65-3.42-1.27-.74,.2-1.38,.58-1.53,1.46-.15,.89,.3,1.49,1.01,1.82,1.1,.51,2.27,.89,3.42,1.32,4.21,1.57,5.41,5.6,2.44,8.24-.99,.88-2.12,1.79-5.15,1.77Z"/><path class="d" d="M283.73,70.81c0-1.57-.09-3.14,.02-4.7,.11-1.52-.43-2.04-1.97-2.01-1.19,.02-3.14,.77-3.13-1.43,0-2.18,1.92-1.42,3.14-1.46,2.79-.08,5.59-.02,8.38-.04,1.06,0,2,.23,2.03,1.47,.03,1.27-.91,1.52-1.97,1.51-.41,0-.82,.04-1.23,0-1.6-.21-2.14,.45-2.08,2.07,.12,3.2,.05,6.4,.05,9.6,0,1.08,.2,2.33-1.51,2.29-1.63-.03-1.79-1.12-1.76-2.4,.04-1.63,0-3.27,0-4.9h0Z"/><path class="d" d="M240.99,69.7c0-2.18,.03-4.37-.01-6.55-.02-1.13,.24-1.82,1.58-1.77,1.24,.04,1.69,.61,1.69,1.78-.02,3.34,.08,6.69-.04,10.03-.06,1.61,.55,2.04,2.01,1.95,1.29-.08,2.6-.04,3.89,.01,.78,.03,1.52,.16,1.37,1.29-.12,.87-.21,1.66-1.35,1.66-2.59,0-5.19,.02-7.78,0-1.25,0-1.36-.89-1.36-1.85,0-2.18,0-4.37,0-6.55Z"/><path class="d" d="M299.3,69.62c0-2.19,.02-4.37,0-6.56-.01-1.09,.2-1.93,1.53-1.89,1.14,.04,1.73,.52,1.72,1.77-.04,4.51-.02,9.01,0,13.52,0,1.07-.4,1.64-1.56,1.66-1.26,.02-1.7-.56-1.68-1.75,.03-2.25,0-4.51,0-6.76h0Z"/><path class="e" d="M0,39.31c.91-1.15,1.76-2.35,2.73-3.43,2.86-3.2,6.5-4.33,10.71-3.84,1.49,.17,2.98,.36,4.46,.55,2.13,.28,3.33-.75,3.44-2.92,.14-2.63-.24-5.26,.65-7.9,1.28-3.77,6.41-7.94,12.05-7.14,8.16,1.15,16.35,2.12,24.54,3.02,5.41,.6,10.17,5.58,10.2,11.02,.03,5.8,.04,11.61,0,17.41-.03,5.78-3.61,10.18-9.26,11.28-2.67,.52-5.38,.86-8.09,1.13-3.08,.31-4.09,1.13-3.88,4.25,.45,6.73-4.67,11.43-9.49,12.24-1.47,.25-2.89,.46-3.32-1.32-.4-1.65,.4-2.97,1.98-3.62,4.97-2.06,5.83-3.29,5.9-8.65,.05-4.01,2.4-6.94,6.33-7.6,2.68-.45,5.4-.76,8.11-.96,3.61-.28,6.61-2.65,6.73-6.17,.21-5.93,.21-11.88-.04-17.81-.16-3.78-2.61-5.86-6.5-6.34-7.91-.98-15.83-1.87-23.71-3.02-3.8-.56-7.32,3.16-7.29,6.08,.02,1.64-.08,3.28,0,4.92,.2,4.87-4.81,7.65-8.6,7.11-1.75-.25-3.5-.52-5.26-.71-4.18-.45-7.37,2.31-7.39,6.51-.05,7.85-.04,15.7,.02,23.55,.03,3.91,3.54,6.81,7.48,6.3,2.03-.26,4.05-.54,6.08-.82,1.66-.22,2.72-1.51,2.73-3.46,.03-5.46,.03-10.92,.03-16.39,0-6.75,3.56-10.56,10.3-11.23,4.56-.45,9.11-1.09,13.66-1.72,2.6-.36,5.08-3.86,4.97-6.67-.09-2.45-.03-4.91-.12-7.37-.05-1.21,.43-1.49,1.57-1.47,3.31,.07,3.52,.25,3.51,3.6,0,1.84,0,3.69,0,5.53,.03,5.84-4,10.44-9.95,11.35-4.51,.69-9.06,1.12-13.59,1.66-3.51,.42-5.44,2.6-5.45,6.19-.01,5.67-.22,11.34,.02,17,.19,4.4-3.79,7.71-7.31,7.86-3.61,.15-7.25,.39-10.85,.11-3.44-.27-5.4-2.88-6.99-5.69-.39-.69-.42-1.57-1.11-2.12v-30.32Z"/><path class="e" d="M0,9.4C2.25,3.39,6.76-.02,12.16,.53c5.41,.55,10.8,1.38,16.2,2.08,3.91,.51,7.88,.75,11.72,1.6,2.49,.55,5.05,.18,7.5,1.1,4,1.5,6.31,4.35,7.47,8.31,.28,.94-.02,1.44-1.12,1.3-2.06-.27-3.92-.3-5.18-2.71-1.3-2.48-4.33-2.49-6.91-2.82-9.65-1.21-19.32-2.37-28.96-3.67-4.45-.6-7.81,2.04-7.92,6.56-.05,2.25-.1,4.51,0,6.75,.18,3.57-.78,3.77-4.26,2.64-.25-.08-.48-.26-.71-.39V9.4Z"/><path class="d" d="M362.2,78.61c-2.15,.02-3.49-.75-4.87-2.63-.53-.72-1.34-1.48-.36-2.27,.76-.61,1.82-.74,2.57,.17,1.11,1.35,2.49,1.86,4.18,1.51,.9-.19,1.7-.56,1.83-1.64,.13-1.05-.43-1.71-1.3-2.09-1.06-.47-2.18-.78-3.24-1.24-3.26-1.42-4.53-3.63-3.57-6.14,.91-2.4,4.21-3.82,7.07-3.01,1.27,.36,2.46,.88,3.19,2.06,.37,.61,.97,1.32,.1,1.97-.76,.57-1.59,.87-2.35-.05-.9-1.09-2.01-1.65-3.42-1.27-.74,.2-1.38,.58-1.53,1.46-.15,.89,.3,1.49,1.01,1.82,1.1,.51,2.27,.89,3.42,1.32,4.21,1.57,5.41,5.6,2.44,8.24-.99,.88-2.12,1.79-5.15,1.77Z"/></g></svg>